<?xml version="1.0" encoding="utf-8"?>
<!-- Generator: Adobe Illustrator 22.1.0, SVG Export Plug-In . SVG Version: 6.00 Build 0)  -->
<svg version="1.1" id="Layer_1" xmlns="http://www.w3.org/2000/svg" xmlns:xlink="http://www.w3.org/1999/xlink" x="0px" y="0px"
	 viewBox="0 0 1366 768" style="enable-background:new 0 0 1366 768;" xml:space="preserve">
<g>
	<g>
		<path d="M213.5,227.7c-6,48.7,5.3,108.3,54,131.9c20.6,9.9,45.3,11.1,65.8,0.4c20.2-10.6,33.6-30.6,43.6-50.5
			c13-25.7,26.1-54.8,23.5-84.2c-0.2-1.9-3.2-1.9-3,0c2.3,26.2-8.2,51.3-19.1,74.5c-9.1,19.4-20.2,39.3-37.8,52.2
			c-18.8,13.7-42.8,15.9-64.4,8c-22.1-8-39-26.2-49.1-47.1c-12.7-26.4-14.1-56.5-10.5-85.2C216.7,225.8,213.7,225.8,213.5,227.7
			L213.5,227.7z"/>
	</g>
</g>
<g>
	<g>
		<path d="M232.2,228.6c0,36.6,2.2,81.3,36.2,103.8c14.3,9.4,36.1,14.4,52.4,7.5c7.7-3.3,13-9.6,16.9-16.7
			c4.9-8.9,8.9-18.4,13.2-27.6c10.2-22.2,19.4-44.9,24.8-68.8c0.4-1.9-2.5-2.7-2.9-0.8c-4.4,19.4-11.3,38-19.2,56.2
			c-3.8,8.8-7.9,17.4-11.9,26.1c-3.7,7.9-7.2,16.7-13.5,23c-13.5,13.6-38.5,9.4-53.8,1.2c-15.2-8.1-25.7-23-31.5-39
			c-7.6-20.7-7.7-43.2-7.8-64.9C235.2,226.7,232.2,226.7,232.2,228.6L232.2,228.6z"/>
	</g>
</g>
<g>
	<g>
		<path d="M216.2,227.7c0.3-1.2,0.7-2.6,1.5-3.5c2.4-2.9,5.8-1.3,8.2-0.2c1.2,0.6,7.2,2.9,6.8,4.9c-0.4,1.9,2.5,2.7,2.9,0.8
			c1-5.2-6.6-7.8-10.4-9.3c-6-2.3-10.2,0.5-11.9,6.5C212.8,228.8,215.6,229.6,216.2,227.7L216.2,227.7z"/>
	</g>
</g>
<g>
	<g>
		<path d="M375.9,226.4c0.9-2.8,1.8-5.7,4.9-6.3c1.6-0.3,3.6,0,5.2,0.1c3.2,0.3,10.9,1.5,12,5.5c0.5,1.9,3.4,1.1,2.9-0.8
			c-1.5-5.5-10.1-7.3-14.9-7.7c-2.7-0.2-6.3-0.7-8.7,1c-2.3,1.6-3.5,4.9-4.3,7.5C372.4,227.4,375.3,228.2,375.9,226.4L375.9,226.4z"
			/>
	</g>
</g>
</svg>
