<?xml version="1.0" encoding="utf-8"?>
<!-- Generator: Adobe Illustrator 22.1.0, SVG Export Plug-In . SVG Version: 6.00 Build 0)  -->
<svg version="1.1"
	 id="svg8" inkscape:version="0.92.3 (2405546, 2018-03-11)" sodipodi:docname="UtilSuite.svg" xmlns:cc="http://creativecommons.org/ns#" xmlns:dc="http://purl.org/dc/elements/1.1/" xmlns:inkscape="http://www.inkscape.org/namespaces/inkscape" xmlns:rdf="http://www.w3.org/1999/02/22-rdf-syntax-ns#" xmlns:sodipodi="http://sodipodi.sourceforge.net/DTD/sodipodi-0.dtd" xmlns:svg="http://www.w3.org/2000/svg"
	 xmlns="http://www.w3.org/2000/svg" xmlns:xlink="http://www.w3.org/1999/xlink" x="0px" y="0px" viewBox="0 0 582.4 170.7"
	 style="enable-background:new 0 0 582.4 170.7;" xml:space="preserve">
<style type="text/css">
	.st0{fill:none;stroke:#4D4D4D;stroke-width:0.6619;}
</style>
<sodipodi:namedview  bordercolor="#666666" borderopacity="1.0" fit-margin-bottom="0" fit-margin-left="0" fit-margin-right="0" fit-margin-top="0" id="base" inkscape:current-layer="layer1" inkscape:cx="284.6136" inkscape:cy="145.97677" inkscape:document-units="mm" inkscape:pageopacity="0.0" inkscape:pageshadow="2" inkscape:window-height="1017" inkscape:window-maximized="1" inkscape:window-width="1920" inkscape:window-x="1912" inkscape:window-y="-8" inkscape:zoom="10.481944" pagecolor="#ffffff" showgrid="false">
	</sodipodi:namedview>
<g id="text30">
</g>
<path id="path37" inkscape:connector-curvature="0" class="st0" d="M152,46.3c0.5,0.5,0.8,0.9,0.8,1.4c0,1.4-1,2.1-3,2.1
	c-0.5,0-1.3-0.1-2.3-0.3c-1-0.2-1.7-0.3-2.2-0.3c-2.9,0-5.9,2.9-8.8,8.6c-13.7,26.2-22.9,56.7-27.7,91.6c1-2.8,2-5.1,3.2-6.8
	c1-1.5,2.1-3,3.1-4.5c0.8-1.3,1.7-2,2.7-2c1.1,0,1.7,0.8,1.7,2.3c0,0.9-0.3,1.8-0.8,2.9c-4.2,9.4-7.1,18.7-8.7,28
	c-0.6,3.6-1.9,5.4-4.1,5.4c-2.3,0-5.5-1.8-9.8-5.4c-2.7-2.3-4.1-3.8-4.1-4.6c0-0.3,0.1-0.9,0.4-1.8c0.3-0.9,0.6-1.9,0.7-2.8
	c1.9-14.2,5.7-32.3,11.6-54.2c-14.1,26.1-27.3,46.2-39.6,60.3c-3.8,4.3-7.7,6.5-11.9,6.5c-4.2,0-7.7-2-10.6-5.9
	c-6.7-5.4-10.7-8.9-12-10.6c-2.5-3.4-3.7-8.5-3.7-15.2c0-1.5,0-3.1,0.1-4.9c0.5-9.7,3.3-22.5,8.3-38.4c4.9-15.7,10.6-29.9,17-42.8
	c-17.9,6-30.6,11.6-38,16.9c-3.5,2.6-5.2,5.2-5.2,7.9c0-0.1,0.9,3.4,2.7,10.5c0.1,0.3,0.1,0.7,0.1,1c0,1.2-0.6,1.8-1.7,1.8
	c-1.9,0-3.5-1.2-4.9-3.5C-0.3,79.9-3,73.2-3,69.2c0-5.4,3.7-9.3,11.1-11.6c12.6-3.4,28.5-8.1,47.7-14.1c3.1-4.9,5.9-7.4,8.5-7.4
	c2.8,0,6.9,2.6,12.2,7.8c0.8,0.7,1.2,1.4,1.2,2c0,1.4-3,2.7-9.1,4c-7.8,13-14.6,29.6-20.4,49.9c-5.1,17.8-7.8,32.3-8.3,43.5
	c-0.2,5.8,1,10.4,3.5,13.8c2.3,3.1,5.1,4.7,8.6,4.7c3.4,0,6.3-1.5,8.9-4.6c11.5-13.6,22.5-29.6,33.1-48c7.4-12.8,16.8-31,28.2-54.5
	c2.7-5.4,5.6-10.5,8.7-15.2c1.4-2.1,3.1-3.1,5.1-3.1C139.1,36.4,144.5,39.7,152,46.3L152,46.3z"/>
<path id="path39" inkscape:connector-curvature="0" class="st0" d="M191.7,38.4c1.8,1,2.7,2.1,2.7,3.3c0,0.9-0.6,1.3-1.8,1.3
	c-0.3,0-0.7,0-1.3-0.1c-0.5-0.1-0.9-0.2-1.2-0.2c-2.5,0-5.4,2.7-8.9,8.2c-3.1,4.8-7.4,15.4-12.9,31.6c-0.5,1.4-0.7,2.3-0.6,2.6
	c0.2,0.5,1,0.7,2.5,0.8c3.8,0.3,8.9,0.2,15.4-0.4c2.2-0.2,3.3,0.8,3.3,2.9c0,1.4-0.8,2.3-2.5,2.7c-1.4,0.2-8.5,0.8-21.5,1.8
	c-7.8,23-12.5,42.5-14.2,58.4c-0.1,0.9-0.1,1.6-0.1,2.3c0,2.2,0.6,3.3,1.7,3.3c1.7,0,7-4.3,15.8-12.9c1-1,2-1.6,3-1.6
	c0.8,0,1.4,0.4,1.6,1.1c0.2,0.8-0.1,1.7-0.9,2.8c-5.2,7-10.4,13-15.4,17.9c-2.1,2-3.9,3-5.3,3s-3.6-1.1-6.6-3.4
	c-3.7-1-5.5-2.9-5.5-5.9c0-0.5,0.1-1,0.2-1.6c2.4-16.9,7.1-37.7,14.1-62.4c-3.4-0.5-6.5-0.9-9.3-1.4c-1.2-0.2-1.8-1-1.8-2.4
	c0-1.5,0.6-2.4,1.9-2.8c1.3-0.3,3.7-1,7.2-2.2c2.1-0.7,4.2-1.7,6.2-2.9c6.9-21.7,12.4-35.7,16.3-42.2c2.3-3.7,4.7-5.5,7.3-5.5
	C183.4,34.5,187,35.8,191.7,38.4L191.7,38.4z"/>
<path id="path41" inkscape:connector-curvature="0" class="st0" d="M224.4,54c1,0.8,1.6,1.7,1.6,2.7c0,1.9-2.8,4.8-8.4,8.8
	c-3.7,2.6-7.3,3.5-10.7,2.8c-1.9-0.4-3.6-1.1-5.1-2.2c-0.5-0.4-0.8-0.8-1.1-1.2c-0.2-0.5-0.2-0.8-0.1-1.1c0.2-0.3,0.6-0.3,1.2-0.2
	c6-5.2,9.9-9,11.8-11.3c1.5-1.7,2.6-2.6,3.2-2.6C218,49.7,220.5,51.1,224.4,54L224.4,54z M210.7,97c-1.6,8.8-5.6,23.6-12.1,44.1
	c1.9-1.7,4.5-4.8,7.8-9.3c0.5-0.6,0.9-0.9,1.4-0.9c1,0,1.2,0.9,0.4,2.8c-0.3,0.7-3,5.2-8.2,13.5c-3.9,6.3-6.7,11.9-8.5,16.7
	c-0.6,1.5-1.7,2.3-3.2,2.3c-1.6,0-3.7-0.8-6.3-2.3c-1.7-0.9-2.5-1.6-2.5-2.1c0-0.4,0.4-1.2,1.1-2.6c3.5-6.2,7.4-16.6,11.7-31.3
	c4.1-14.2,6.4-24.7,6.9-31.5c0.2-2.9-0.1-4.4-0.9-4.4c-0.6,0-1.6,0.7-3.1,2.2l-6,5.7c-2.1,2-3.2,2.1-3.2,0.3c0-0.5,0.3-1.2,0.9-2
	c3-4.3,6.3-8.4,9.7-12.3c1-1.1,2-1.7,3-1.7c1,0,2.6,0.7,4.6,2.2c3,0.8,4.6,1.3,5,1.5c1.5,0.9,2.2,2.6,2.2,5.1
	C211.1,94.2,211,95.5,210.7,97L210.7,97z"/>
<path id="path43" inkscape:connector-curvature="0" class="st0" d="M298.6,11.3c0.8,0.7,1.3,1.3,1.3,2.1c0,1.2-0.7,1.9-2.2,1.9
	c-0.6,0-1.3-0.2-2-0.6c-3-1.5-5.2-2.3-6.7-2.3c-4.1,0-8.5,4-13.4,12c-17.6,29-30.2,66.5-37.6,112.5c-0.2,1.2-0.5,2.9-1,5
	c1.5-1.6,3.7-4.1,6.6-7.7c1.7-2,2.9-3,3.7-3c1.7,0,1.8,1,0.4,3c-6.2,9-10.3,18.4-12.3,28.2c-0.7,2.4-1.6,3.6-2.7,3.6
	c-0.5,0-1.2-0.3-2-0.9c-3.3-2.2-5.2-3.5-5.6-3.9c-1.3-1.3-1.9-3-1.9-5.1c0-1,0.2-2.3,0.5-3.8c7.5-41.7,17.2-77.3,29-106.6
	c8.9-22.1,16.9-36.5,24-43c1.9-1.8,3.9-2.7,5.8-2.7c1.7,0.1,4,1.2,6.8,3.3C292.2,6,295.4,8.6,298.6,11.3L298.6,11.3z"/>
<path id="path45" inkscape:connector-curvature="0" class="st0" d="M380.4,43.8c-2.5,9-6,16.8-10.3,23.4c-1.9,2.9-3.8,4.4-5.5,4.4
	c-1.7,0-4.6-1.4-8.8-4.2c-1.3-0.9-1.9-1.7-1.9-2.7c0-1.4,1.1-2.4,3.4-2.9c1.7-0.5,3.6-3.5,5.7-8.9c2-5.2,3-9.2,3-12.2
	c0-3.1-1.2-4.6-3.6-4.6c-0.8,0-1.9,0.1-3.2,0.4c-2.5,0.4-8,2.1-16.3,5.2c-1,0.3-1.8,0.5-2.6,0.5c-1.9,0-2.9-0.7-2.9-2
	c0-1.2,1-2.4,3-3.3c7.3-3.7,14.4-6.7,21.5-9.2c2.3-0.9,3.9-1.3,4.9-1.3c1.5,0,3.4,2.1,5.8,6.3c3.6,1.1,5.9,1.9,6.7,2.5
	c1.4,0.9,2.1,2.2,2.1,3.9C381.2,40.3,380.9,41.9,380.4,43.8L380.4,43.8z M351.3,134.1c0,11.9-6,21.4-17.9,28.6
	c-3.4,5.4-7.9,8.1-13.3,8.1c-9.7-0.1-20.4-4.5-32.3-13.1c-10.2-7.3-17.2-14.4-21.1-21.2c-3.7-6.4-5.5-10.4-5.5-12
	c0-2,1.5-4.3,4.4-6.9c2.7-2.4,4.9-3.6,6.4-3.6c1.5,0,2.2,1,2.2,2.9c0,0.9-0.2,1.9-0.5,3.1c3.4,9.4,10.7,18.2,21.8,26.3
	c11.1,8.1,21.1,12.2,30.1,12.1c8-0.1,12-5.6,12-16.5c0-6-4.7-18.1-14-36.1c-9.3-18.1-13.9-31-13.9-38.8c0-5.1,1.4-9.7,4.3-13.7
	c2.4-3.3,6.6-7.3,12.6-11.9c1.1-0.9,2.2-1.3,3.3-1.3c1.7,0,2.6,0.8,2.6,2.3c0,1-0.6,2.1-1.7,3.2c-5,4.8-7.5,10.6-7.5,17.5
	c0,7.7,4.7,20.3,14,37.9S351.3,129.7,351.3,134.1L351.3,134.1z"/>
<path id="path47" inkscape:connector-curvature="0" class="st0" d="M441.7,92.6c-8.6,16.2-15.1,35.2-19.3,57c1.8-3.2,4-7.3,6.6-12.3
	c0.3-0.9,0.8-1.4,1.6-1.4c1,0,1.5,0.6,1.5,1.9c0,0.4-0.1,0.8-0.3,1.3c-4.1,9.6-6.9,16.9-8.2,22.1c-0.8,3.3-1.8,4.9-3.1,4.9
	s-3.8-1.3-7.6-3.8c-2-1.4-2.7-4-2-7.7c2.7-14.3,6-26.7,9.8-37.2c-12.5,20.6-23,35.7-31.5,45.5c-1.9,2.2-3.9,3.2-6.1,3.2
	c-1.8,0-4-0.8-6.4-2.3c-4.5-0.8-6.7-3.1-6.7-7.1c0-0.7,0.1-1.5,0.2-2.4c1.6-18.7,5-34.3,10.1-46.7c-1.1,1-2.8,2.6-5,4.6
	c-0.8,0.7-1.5,0.9-1.9,0.6c-0.5-0.4-0.4-1.1,0.3-2.3c3.5-5.2,5.6-8.6,6.2-10.2c2-5.1,4.1-9.1,6.3-11.9c1.2-1.4,2.4-2.2,3.7-2.2
	c1.7,0,4.3,1,7.7,3.1c0.9,0.6,1.4,1.2,1.4,1.8c0,0-0.7,1.1-2.1,3.2c-3.2,5-6.7,13.8-10.3,26.3c-4,13.6-6,24.7-6,33.3
	c0,2.8,0.6,4.2,1.7,4.2c1,0,2.7-1.2,5.1-3.6c5-5.4,12.2-15.5,21.7-30.5c8.4-13.2,13.4-21.8,15.2-25.7c2.9-6.7,5.3-10.6,7.1-11.8
	c1.2-0.8,2.2-1.2,3.1-1.2c0.9,0,2.7,0.7,5.2,2.1c2.6,1.4,3.9,2.4,3.9,3c0,0.2-0.2,0.5-0.7,0.8C442.2,91.8,441.9,92.2,441.7,92.6
	L441.7,92.6z"/>
<path id="path49" inkscape:connector-curvature="0" class="st0" d="M487.5,54c1,0.8,1.6,1.7,1.6,2.7c0,1.9-2.8,4.8-8.4,8.8
	c-3.7,2.6-7.3,3.5-10.7,2.8c-1.9-0.4-3.6-1.1-5.1-2.2c-0.5-0.4-0.8-0.8-1.1-1.2c-0.2-0.5-0.2-0.8-0.1-1.1c0.2-0.3,0.6-0.3,1.2-0.2
	c6-5.2,9.9-9,11.8-11.3c1.5-1.7,2.6-2.6,3.2-2.6C481.1,49.7,483.6,51.1,487.5,54L487.5,54z M473.8,97c-1.6,8.8-5.6,23.6-12.1,44.1
	c1.9-1.7,4.5-4.8,7.8-9.3c0.5-0.6,0.9-0.9,1.4-0.9c1,0,1.2,0.9,0.4,2.8c-0.3,0.7-3,5.2-8.2,13.5c-3.9,6.3-6.7,11.9-8.5,16.7
	c-0.6,1.5-1.7,2.3-3.2,2.3s-3.7-0.8-6.3-2.3c-1.7-0.9-2.5-1.6-2.5-2.1c0-0.4,0.4-1.2,1.1-2.6c3.5-6.2,7.4-16.6,11.7-31.3
	c4.1-14.2,6.4-24.7,6.9-31.5c0.2-2.9-0.1-4.4-0.9-4.4c-0.6,0-1.6,0.7-3.1,2.2l-6,5.7c-2.1,2-3.2,2.1-3.2,0.3c0-0.5,0.3-1.2,0.9-2
	c3-4.3,6.3-8.4,9.7-12.3c1-1.1,2-1.7,3-1.7c1,0,2.6,0.7,4.6,2.2c3,0.8,4.6,1.3,5,1.5c1.5,0.9,2.2,2.6,2.2,5.1
	C474.2,94.2,474.1,95.5,473.8,97L473.8,97z"/>
<path id="path51" inkscape:connector-curvature="0" class="st0" d="M539.1,38.4c1.8,1,2.7,2.1,2.7,3.3c0,0.9-0.6,1.3-1.8,1.3
	c-0.3,0-0.7,0-1.3-0.1c-0.5-0.1-0.9-0.2-1.2-0.2c-2.5,0-5.4,2.7-8.9,8.2c-3.1,4.8-7.4,15.4-12.9,31.6c-0.5,1.4-0.7,2.3-0.6,2.6
	c0.2,0.5,1,0.7,2.5,0.8c3.8,0.3,8.9,0.2,15.4-0.4c2.2-0.2,3.3,0.8,3.3,2.9c0,1.4-0.8,2.3-2.5,2.7c-1.4,0.2-8.5,0.8-21.5,1.8
	c-7.8,23-12.5,42.5-14.2,58.4c-0.1,0.9-0.1,1.6-0.1,2.3c0,2.2,0.6,3.3,1.7,3.3c1.7,0,7-4.3,15.8-12.9c1-1,2-1.6,3-1.6
	c0.8,0,1.4,0.4,1.6,1.1c0.2,0.8-0.1,1.7-0.9,2.8c-5.2,7-10.4,13-15.4,17.9c-2.1,2-3.9,3-5.3,3c-1.4,0-3.6-1.1-6.6-3.4
	c-3.7-1-5.5-2.9-5.5-5.9c0-0.5,0.1-1,0.2-1.6c2.4-16.9,7.1-37.7,14.1-62.4c-3.4-0.5-6.5-0.9-9.3-1.4c-1.2-0.2-1.8-1-1.8-2.4
	c0-1.5,0.6-2.4,1.9-2.8c1.3-0.3,3.7-1,7.2-2.2c2.1-0.7,4.2-1.7,6.2-2.9c6.9-21.7,12.4-35.7,16.3-42.2c2.3-3.7,4.7-5.5,7.3-5.5
	C530.8,34.5,534.4,35.8,539.1,38.4L539.1,38.4z"/>
<path id="path53" inkscape:connector-curvature="0" class="st0" d="M581.4,135.8c-15.7,20.4-26.8,30.6-33.2,30.6
	c-3,0-6.9-2.1-11.6-6.4c-4.9-2.3-7.3-5.4-7.3-9.2c0-0.7,0.1-1.5,0.2-2.3c1.2-9,3.5-18.9,7.1-29.8c-2.4-1.2-3.6-2.4-3.6-3.5
	c0-0.9,0.7-1.4,2-1.4c1,0,2.1,0.3,3.2,0.9c5.8-13.1,10.9-22.4,15.5-27.9c3-3.7,5.7-5.5,8.1-5.5c1.1,0,3.8,0.9,8.2,2.9
	c-0.3-2,0.2-3.1,1.7-3.4c0.1,0,1.6,0,4.6,0c2.8,0,4.2,0.5,4.2,1.5c0,0.2-0.1,0.8-0.3,1.7c-0.2,0.9-0.3,1.8-0.3,2.6
	c0,2.4,0,5.3,0.1,8.7c0.1,3.5,0.1,5.8,0.1,7c0,8.1-2.2,13.8-6.6,17c-4,2.9-8.5,4.4-13.6,4.4c-2.7,0-7.1-0.7-13.2-2.2
	c-1.1,2-2.3,6-3.7,11.9c-1.8,7.5-2.7,14.1-2.5,19.9c0.1,3.4,1.1,5.1,3.2,5.1c0.8,0,1.8-0.2,3-0.6c7.5-2.7,18-10.9,31.4-24.6
	c0.8-0.9,1.7-1.3,2.5-1.3c1.2,0,1.8,0.6,1.8,1.8C582.4,134.3,582,135,581.4,135.8L581.4,135.8z M570,92.4c0-2.6-0.6-3.8-1.7-3.8
	c-0.7,0-1.7,0.5-3.1,1.6c-6.3,5.2-11.9,14.3-16.7,27.2c1.3,0.2,3.6,0.4,6.8,0.6c5.2,0.2,9.2-1,11.8-3.6c1.9-2,3-5.2,3.2-9.7
	C570.1,107.9,570,103.8,570,92.4L570,92.4z"/>
</svg>
